<svg width="51" height="34" viewBox="0 0 51 34" fill="none" xmlns="http://www.w3.org/2000/svg">
<g filter="url(#filter0_d_32_163)">
<rect x="4" width="43" height="25.0498" rx="4" fill="white"/>
<path fill-rule="evenodd" clip-rule="evenodd" d="M21.8407 16.5107L23.1628 8.54736H25.2762L23.9542 16.5107H21.8407Z" fill="#26337A"/>
<path fill-rule="evenodd" clip-rule="evenodd" d="M31.6201 8.74281C31.2023 8.58298 30.5451 8.40869 29.7264 8.40869C27.6369 8.40869 26.1661 9.48936 26.1539 11.0368C26.1406 12.1814 27.2034 12.8198 28.0047 13.2003C28.8283 13.5902 29.1049 13.8398 29.1017 14.1885C29.096 14.7218 28.4444 14.9662 27.8367 14.9662C26.9906 14.9662 26.541 14.8459 25.846 14.5486L25.5742 14.4218L25.2786 16.2043C25.7714 16.4262 26.685 16.6187 27.6332 16.6288C29.8538 16.6288 31.2967 15.5612 31.3136 13.9087C31.3212 13.001 30.758 12.313 29.5384 11.745C28.7998 11.3757 28.3466 11.1311 28.3518 10.7574C28.3522 10.4264 28.7347 10.0721 29.5625 10.0721C30.2537 10.0613 30.7542 10.2163 31.1441 10.3781L31.3339 10.4691L31.6201 8.74281Z" fill="#26337A"/>
<path fill-rule="evenodd" clip-rule="evenodd" d="M34.4343 13.6874C34.6094 13.2297 35.2761 11.4615 35.2761 11.4615C35.2638 11.4825 35.4503 11.0002 35.557 10.7017L35.6997 11.3885C35.6997 11.3885 36.1052 13.2893 36.1887 13.6874C35.8597 13.6874 34.8469 13.6874 34.4343 13.6874ZM37.0415 8.55542H35.4082C34.9016 8.55542 34.5225 8.69631 34.3005 9.21554L31.162 16.5135H33.3817C33.3817 16.5135 33.7439 15.5318 33.8261 15.3163C34.0682 15.3163 36.2251 15.3204 36.533 15.3204C36.5963 15.5983 36.7903 16.5135 36.7903 16.5135H38.7519L37.0415 8.55542Z" fill="#26337A"/>
<path fill-rule="evenodd" clip-rule="evenodd" d="M20.0677 8.55396L17.9991 13.9831L17.7776 12.8795C17.3921 11.6079 16.1922 10.2297 14.85 9.53913L16.7424 16.5037L18.9791 16.5024L22.3073 8.55396H20.0677Z" fill="#26337A"/>
<path fill-rule="evenodd" clip-rule="evenodd" d="M16.0789 8.54858H12.6708L12.6428 8.71358C15.2947 9.37323 17.0493 10.9655 17.7776 12.8795L17.037 9.22046C16.9092 8.71582 16.5379 8.56622 16.0789 8.54858Z" fill="#EC982D"/>
</g>
<defs>
<filter id="filter0_d_32_163" x="0" y="0" width="51" height="33.0498" filterUnits="userSpaceOnUse" color-interpolation-filters="sRGB">
<feFlood flood-opacity="0" result="BackgroundImageFix"/>
<feColorMatrix in="SourceAlpha" type="matrix" values="0 0 0 0 0 0 0 0 0 0 0 0 0 0 0 0 0 0 127 0" result="hardAlpha"/>
<feOffset dy="4"/>
<feGaussianBlur stdDeviation="2"/>
<feComposite in2="hardAlpha" operator="out"/>
<feColorMatrix type="matrix" values="0 0 0 0 0 0 0 0 0 0 0 0 0 0 0 0 0 0 0.25 0"/>
<feBlend mode="normal" in2="BackgroundImageFix" result="effect1_dropShadow_32_163"/>
<feBlend mode="normal" in="SourceGraphic" in2="effect1_dropShadow_32_163" result="shape"/>
</filter>
</defs>
</svg>
